<svg xmlns="http://www.w3.org/2000/svg" viewBox="0 0 252.44 193"><defs><style>.cls-1{fill:none;stroke:#565159;stroke-miterlimit:10;stroke-width:9px;}.cls-2{fill:#565159;}</style></defs><title>Asset 1</title><g id="Layer_2" data-name="Layer 2"><g id="Layer_1-2" data-name="Layer 1"><path class="cls-1" d="M247.94,4.5V148c0,22.29-18.07,40.52-40.16,40.52H46.29a39.61,39.61,0,0,1-14.18-2.62,41.55,41.55,0,0,0,25.56-38V4.5Z"/><path class="cls-1" d="M56.5,47.5V147.88c0,16.86-10.69,31.76-25.79,38A40.82,40.82,0,0,1,15,175.12,40.32,40.32,0,0,1,4.5,148V47.5Z"/><rect class="cls-2" x="92.5" y="28.5" width="123" height="14"/><rect class="cls-2" x="176.5" y="61.5" width="60" height="70"/><rect class="cls-2" x="78.5" y="67.5" width="75.5" height="5"/><rect class="cls-2" x="78.5" y="85.5" width="75.5" height="5"/><rect class="cls-2" x="78.5" y="103.5" width="75.5" height="5"/><rect class="cls-2" x="78.5" y="121.5" width="75.5" height="5"/><rect class="cls-2" x="78.5" y="139.5" width="75.5" height="5"/><rect class="cls-2" x="78.5" y="157.5" width="75.5" height="5"/></g></g></svg>